<mxfile host="app.diagrams.net" modified="2022-04-13T19:42:24.002Z" agent="5.0 (Windows NT 10.0; Win64; x64) AppleWebKit/537.36 (KHTML, like Gecko) Chrome/100.0.4896.75 Safari/537.36 Edg/100.0.1185.36" etag="xquOS_YIrU--GCjPz3Ff" version="17.4.4" type="github">
  <diagram id="xam64ehwIrRU2j13fh-O" name="Page-1">
    <mxGraphModel dx="1422" dy="794" grid="1" gridSize="10" guides="1" tooltips="1" connect="1" arrows="1" fold="1" page="1" pageScale="1" pageWidth="827" pageHeight="1169" math="0" shadow="0">
      <root>
        <mxCell id="0" />
        <mxCell id="1" parent="0" />
        <mxCell id="jkpxF5JOeUw7JI64un_L-1" value="" style="rounded=1;whiteSpace=wrap;html=1;strokeColor=#004C99;dashed=1;" vertex="1" parent="1">
          <mxGeometry x="70" y="300" width="160" height="130" as="geometry" />
        </mxCell>
      </root>
    </mxGraphModel>
  </diagram>
</mxfile>
